PathFileType	4	(X/Y/Z)	C:\Users\WrightLab\Desktop\Jo\P3_24.trc
DataRate	CameraRate	NumFrames	NumMarkers	Units	OrigDataRate	OrigDataStartFrame	OrigNumFrames
100.00	100.00	       37	19	mm	100.00	457	       609
Frame#	Time	Headset_Front			Headset_Back			Headset_Left			Headset_Right			Left_Shoulder			Right_Shoulder			Sternum			C7			Left Elbow			Right Elbow			Left Wrist			Right Wrist			Left ASIS			Right ASIS			S2			Left Knee			Right Knee			Left Ankle			Right Ankle			
		X1	Y1	Z1	X2	Y2	Z2	X3	Y3	Z3	X4	Y4	Z4	X5	Y5	Z5	X6	Y6	Z6	X7	Y7	Z7	X8	Y8	Z8	X9	Y9	Z9	X10	Y10	Z10	X11	Y11	Z11	X12	Y12	Z12	X13	Y13	Z13	X14	Y14	Z14	X15	Y15	Z15	X16	Y16	Z16	X17	Y17	Z17	X18	Y18	Z18	X19	Y19	Z19	

457	4.560	-632.28101	1331.34521	-1135.41040										-762.35181	1280.54651	-1281.58362	-460.10614	1285.07800	-1082.26611							-778.29620	947.68896	-1356.89771	-405.59192	938.13892	-1032.51294				-345.49716	751.34045	-1144.15234	-656.28815	795.17493	-1322.86267				-632.09546	881.51324	-1086.02637				-418.43359	402.00833	-1291.29321				-439.64044	66.90249	-1336.31616	
458	4.570	-629.12238	1331.87671	-1143.14966										-758.07098	1282.20178	-1290.39319	-457.07532	1286.11475	-1087.68433							-772.60760	948.16681	-1362.64465	-403.89548	938.72430	-1037.68591				-341.81705	750.96863	-1147.44312							-629.68488	882.76105	-1094.50647				-413.68286	402.61111	-1300.31140				-438.62808	66.92056	-1337.75903	
459	4.580	-626.22870	1333.97620	-1150.30237										-752.94385	1284.26733	-1298.29871	-454.23880	1287.41650	-1094.12366							-766.91974	950.87195	-1372.04028	-402.81873	940.06195	-1042.64746				-338.88507	752.62494	-1151.66614							-625.96039	884.49493	-1103.68408				-409.27869	404.82986	-1306.67126				-437.21979	67.09792	-1341.03735	
460	4.590	-623.16522	1334.15808	-1157.02100										-748.53302	1286.15686	-1306.68079	-451.74338	1288.71533	-1099.90417							-761.39856	951.63257	-1377.41406	-400.32422	941.71320	-1044.60107				-335.69739	754.14447	-1155.23083							-621.91296	884.56439	-1112.88330				-405.76688	405.55920	-1311.30579				-435.68619	67.92760	-1342.19470	
461	4.600	-620.03833	1336.23645	-1164.03308										-743.76044	1287.72473	-1313.81116	-448.88303	1289.58289	-1105.11206							-755.93646	954.17676	-1386.05481	-399.96442	942.49475	-1051.33521				-331.62726	756.31189	-1160.13916							-619.75775	886.05963	-1120.22668				-403.47183	406.51868	-1315.60486				-434.73297	69.57907	-1342.53369	
462	4.610	-618.75232	1336.96204	-1169.84961										-738.98871	1290.79102	-1324.77820	-446.77951	1291.14551	-1111.09399							-750.94751	955.08398	-1391.81702	-397.79401	943.93750	-1055.65503				-327.28375	756.77429	-1163.21460							-616.20294	886.37927	-1128.47034				-401.34735	406.95105	-1320.89075				-434.24973	68.85999	-1342.31116	
463	4.620	-614.87109	1337.72144	-1176.84802										-735.08850	1292.22876	-1331.25037	-444.22238	1292.28625	-1116.37061							-745.88043	956.81201	-1399.39929	-396.49277	945.39001	-1059.74158				-323.72113	759.18390	-1167.50732							-613.20459	889.05963	-1136.54199				-400.40350	405.83466	-1326.46130				-434.11743	68.94696	-1342.20581	
464	4.630	-612.66431	1338.48950	-1184.23315										-729.88458	1293.57593	-1339.71948	-442.26947	1293.41272	-1121.60901										-395.09195	946.79895	-1064.68225				-318.99249	760.15051	-1171.32507							-610.51233	890.16791	-1146.02649				-397.16028	406.90094	-1324.95435				-433.88251	68.82576	-1342.48975	
465	4.640	-610.89844	1340.47729	-1191.52722										-725.37433	1295.20508	-1348.69141	-440.16055	1293.94360	-1126.67468										-393.56818	947.45428	-1069.52234				-314.77582	762.62836	-1177.29004							-607.78577	890.34009	-1153.12732				-396.79337	405.73108	-1331.10242				-433.87683	68.83070	-1342.48547	
466	4.650	-608.08722	1340.04077	-1197.82947										-720.62500	1295.87573	-1356.65112	-437.93869	1295.05835	-1131.39429										-391.06482	948.07324	-1074.20642				-310.21732	764.11273	-1181.77686							-604.67706	890.86517	-1160.00928				-395.58377	403.82043	-1332.52588				-434.29227	67.80683	-1344.33582	
467	4.660	-604.47009	1340.20544	-1204.37085										-715.93799	1296.44043	-1365.05017	-435.95844	1295.84436	-1136.69409										-390.12781	949.23560	-1080.54102				-305.97278	766.38342	-1186.89807							-600.99451	890.39069	-1166.08594				-392.09778	402.97943	-1335.14612				-434.22034	67.83489	-1344.27588	
468	4.670	-603.25238	1340.96252	-1211.74915										-711.20935	1296.88074	-1373.81665	-434.16656	1295.97791	-1141.74829										-386.83365	949.82819	-1084.38538													-598.97272	890.49719	-1174.71545				-389.50650	403.51318	-1333.81628				-434.02231	67.93132	-1344.60376	
469	4.680	-600.69525	1340.76184	-1218.87244										-706.54199	1297.21667	-1383.02759	-432.79581	1296.06592	-1146.84131										-383.51971	950.07977	-1088.71741													-595.49683	890.03003	-1180.74268				-389.58496	401.87091	-1339.56726				-434.17520	67.79572	-1346.61108	
470	4.690	-596.49640	1340.95813	-1225.22119										-702.15967	1296.18323	-1388.79346	-430.62195	1296.54993	-1151.56226										-380.09897	950.39471	-1093.62134													-594.03131	890.25171	-1187.23096				-384.90311	404.05957	-1337.39417				-433.02716	67.66026	-1346.17444	
471	4.700	-597.11700	1341.50635	-1232.84412										-697.12579	1297.80811	-1401.72437	-429.18658	1296.64099	-1155.60437										-377.09671	950.05127	-1098.00476													-591.82922	890.63428	-1193.28662				-385.47519	402.40692	-1342.52014				-433.19501	68.18463	-1346.41956	
472	4.710	-594.87231	1342.61133	-1240.17456										-692.35144	1296.06702	-1406.51074	-427.59506	1296.98267	-1160.18457										-375.45224	951.29608	-1102.43384													-590.08899	890.45038	-1200.09180				-383.48032	403.89978	-1344.13965				-432.55060	67.80089	-1346.50488	
473	4.720	-592.03754	1342.71936	-1246.49170										-687.26270	1297.74731	-1419.29309	-426.45178	1297.75513	-1165.51941										-371.95236	951.33032	-1106.65784													-588.87860	891.07965	-1205.71069				-380.51697	402.91702	-1347.64429				-431.80283	68.84808	-1346.22314	
474	4.730	-589.59943	1343.13037	-1253.59998										-682.81348	1296.72925	-1425.03076	-425.46713	1297.95374	-1168.94971										-369.44830	951.57751	-1111.18188													-588.00592	892.28601	-1212.85474				-378.49954	404.05072	-1346.90454				-431.80542	66.58293	-1349.82764	
475	4.740	-587.45844	1343.41504	-1260.36389										-678.29199	1295.76379	-1430.53088	-424.08755	1298.33130	-1173.97363										-366.40298	951.89581	-1115.78357													-587.22522	892.60706	-1219.30725				-377.97375	402.94775	-1349.95874				-431.95782	66.48267	-1351.60400	
476	4.750	-585.10925	1343.73755	-1266.74231										-673.47571	1298.24316	-1444.11633	-423.57950	1298.60742	-1177.45190										-364.23032	952.28967	-1119.71448													-586.77063	892.99365	-1225.48230				-374.78775	403.79538	-1351.13928				-431.82727	66.60652	-1351.43909	
477	4.760	-582.76349	1344.40039	-1273.91211										-668.22278	1298.02185	-1451.80212	-422.67044	1299.38391	-1181.81067										-361.25708	952.56726	-1124.64124													-586.43768	893.45374	-1232.93042				-374.35196	402.07938	-1352.43921				-431.56473	66.80837	-1349.52368	
478	4.770																-421.91937	1299.64404	-1185.64844										-359.95715	953.60571	-1129.01624													-586.69781	893.36761	-1238.75806				-372.90298	403.74298	-1353.24207				-432.29916	67.66782	-1351.65735	
479	4.780																-421.71466	1300.14575	-1190.03711										-358.71896	955.07520	-1134.94495													-585.96051	893.64630	-1245.90637				-372.08487	401.91251	-1355.67395				-431.96805	66.92738	-1351.45239	
480	4.790																-421.41190	1300.66711	-1193.28979										-356.75024	955.67975	-1137.42456													-586.24377	893.66718	-1253.12500				-370.64090	401.45352	-1355.63110				-431.96597	66.94015	-1351.45068	
481	4.800																-424.16983	1302.05933	-1197.06250										-355.43414	956.40955	-1141.12402													-586.47998	893.72845	-1259.72034				-370.12103	401.46213	-1355.58191				-432.41406	68.45958	-1350.62695	
482	4.810																-420.45453	1301.61841	-1199.97803										-354.81372	956.47504	-1144.31226													-586.76624	894.60260	-1265.84656				-369.05994	401.71924	-1355.22327				-432.18695	68.01627	-1350.27588	
483	4.820																-423.92426	1303.44800	-1203.70776										-352.43393	958.31177	-1148.04883													-586.82037	894.58685	-1273.49316				-368.64642	402.06140	-1354.95239				-432.20953	67.99757	-1350.30469	
484	4.830																-425.47424	1304.81360	-1206.51636										-352.30350	959.24194	-1151.77563													-585.32819	894.55792	-1280.92090				-368.08347	402.15878	-1355.00781				-432.80090	68.45553	-1350.82068	
485	4.840																-426.09576	1305.22058	-1210.38745										-351.88998	960.57361	-1154.94727													-586.05505	895.18750	-1286.70032				-368.01846	402.35001	-1356.02954				-432.39450	66.90157	-1351.69739	
486	4.850																-426.59293	1305.72668	-1213.48291										-350.80408	960.64966	-1159.16895													-586.62097	895.37128	-1292.10266				-368.29263	402.32355	-1358.02966				-432.75833	68.52502	-1350.76941	
487	4.860																-427.73874	1306.00903	-1216.73022										-350.77377	961.05450	-1160.76050													-586.51294	896.39532	-1299.53503				-368.24753	402.37701	-1357.99500				-432.72357	68.57742	-1350.72729	
488	4.870																-429.25302	1307.06873	-1220.03198										-350.02701	961.48486	-1165.16541													-586.24335	897.33667	-1306.34827				-368.21646	402.41272	-1357.97095				-432.80402	68.52564	-1350.83093	
489	4.880																-429.26706	1307.40930	-1223.08069										-350.27933	962.96466	-1168.10498													-585.68530	898.18115	-1313.33582				-368.09583	402.05856	-1359.40149				-432.81503	68.53020	-1350.84619	
490	4.890																-429.83023	1307.87280	-1225.79358										-349.93680	963.96436	-1171.43164													-585.79596	898.29218	-1320.41138				-368.02362	401.31775	-1360.46155				-432.85199	68.50278	-1350.89343	
491	4.900																-432.44327	1309.55310	-1229.20874										-351.69925	964.47986	-1173.98022													-586.57684	899.89429	-1326.91443				-368.07031	401.38394	-1360.55798				-432.88727	68.47997	-1350.93884	
492	4.910																-432.79947	1309.40002	-1232.24292										-352.12311	964.22144	-1178.03003													-586.53387	898.44885	-1343.08008				-367.73044	401.87546	-1360.55261				-432.95374	69.25905	-1349.30005	
493	4.920																-434.10651	1309.45105	-1235.81433										-354.39908	964.84796	-1180.71057													-586.22223	898.79205	-1347.50232				-367.40933	401.51135	-1360.52942				-433.04837	68.38905	-1351.14758	
